<svg xmlns="http://www.w3.org/2000/svg" xml:space="preserve" width="512" height="512" style="shape-rendering:geometricPrecision;text-rendering:geometricPrecision;image-rendering:optimizeQuality;fill-rule:evenodd;clip-rule:evenodd"><defs><style>.fil2{fill:#f6c8c7}</style></defs><g id="Capa_x0020_1"><rect width="512" height="512" rx="56.61" ry="56.61" style="fill:#fefefe"/><g id="_2107342863776"><path d="M161.7 349.18c14.66 32.2 14.48 57.66 53.02 73.7 22.34 9.3 71.37 9.41 93.72 0 12.73-5.36 21.24-11.72 27.45-19 21.41-25.06 31.14-65.51 67.4-85.36-8.28 10.66-14.7 21.04-21.43 34.59-19.33 38.86-23.18 73.76-70.82 89.75-24.02 8.06-74.91 8.07-98.92 0-47.63-16.02-51.48-50.88-70.82-89.75-10.92-21.95-21.71-36.12-39.3-55.4-8.5-11.47-15.58-20.71-14.36-31.55.91-16.57 11.68-26.12 27.73-29.02 4.53-.82 9.73.33 10.99.68-3.25 1.33-6.79 2.95-9.79 4.8-12.41 7.72-14.01 17.9-8.96 26.35 10.21 17.06 24.33 27.5 38.39 49.97 5.24 8.37 10.53 18.18 15.7 30.24" style="fill:#754830"/><path d="M248.04 0c75.79 103.76-105.74 105.41-94.02 165.52C125.61 69.9 285.32 96.82 248.04 0" class="fil2"/><path d="M215.87 23.19c58.24 11.18 76.75 34.95 64.07 62.27-23.75 51.08-113.22 60.49-153.68 100.46-30.23 29.84-26.55 71.27 11.23 93.83 33.14 19.79 85.38 24.01 119.9 14.36-17.88.76-40.38-2.69-62.94-10.56-12.97-4.53-29.62-11.38-42.41-21.11-31.77-24.14-22.66-57.56 9.5-74.36 41.66-21.76 117.47-44.65 140.14-88.41 21.88-42.18-8.29-76.48-85.81-76.48" class="fil2"/><path d="M307.06 100.49c33.49 2.21 50.53 17.95 52.1 37.56 2.79 34.78-38.29 62.88-66 75-46.81 20.43-105.76 22.13-129.79-21.95 69.42 48.32 238.49-43.6 143.69-90.61" class="fil2"/><path d="M346.92 152.94c48.3 9.99 61.55 32.77 53.05 56.71-13.56 38.27-70.04 64.74-108.22 72.79-40 8.44-82.56 4.23-118.26-22.43 27.81 8.53 51.56 11.37 76.37 8.86 26.06-2.64 54.44-11.12 77.35-23.09 47.81-25 69.62-64.11 19.71-92.84" class="fil2"/><path d="M381.92 236.12c33.06-.99 49.41 17.67 39.88 40.23-9.62 22.81-41.2 40.2-62.27 50.47-48.29 23.53-110.3 45.25-130.82 100.41-8.66 23.26-8.26 51.12 6.96 84.77-21.63-33.34-27.36-63.07-21.72-89.25 15.13-70.23 93.42-94.08 148.81-123.3 36.34-19.17 70.54-45.52 19.16-63.33" class="fil2"/></g></g></svg>