<svg xmlns="http://www.w3.org/2000/svg" xml:space="preserve" width="250" height="250" style="shape-rendering:geometricPrecision;text-rendering:geometricPrecision;image-rendering:optimizeQuality;fill-rule:evenodd;clip-rule:evenodd"><defs><style>.fil1{fill:#f6c8c7}.fil2{fill:#754830;fill-rule:nonzero}</style></defs><g id="Capa_x0020_1"><g id="_1763412688592"><path d="M102.9 84.84c3.43 7.52 3.39 13.46 12.38 17.21 5.22 2.17 16.67 2.2 21.89 0 2.97-1.25 4.96-2.74 6.41-4.44 5-5.85 7.27-15.29 15.74-19.93-1.93 2.49-3.43 4.91-5 8.08-4.52 9.07-5.42 17.22-16.54 20.95-5.61 1.89-17.49 1.89-23.1 0-11.12-3.74-12.02-11.87-16.54-20.95-2.55-5.13-5.07-8.44-9.18-12.94-1.98-2.68-3.64-4.84-3.35-7.37.21-3.87 2.73-6.1 6.47-6.78 1.06-.19 2.28.08 2.57.16-.76.32-1.58.69-2.28 1.13-2.9 1.8-3.28 4.18-2.1 6.15 2.39 3.98 5.68 6.42 8.97 11.67 1.22 1.95 2.46 4.24 3.66 7.06" style="fill:#754830"/><path d="M123.07 3.3c17.69 24.23-24.7 24.61-21.96 38.65-6.63-22.33 30.66-16.04 21.96-38.65" class="fil1"/><path d="M115.55 8.71c13.6 2.61 17.93 8.17 14.96 14.54-5.54 11.93-26.43 14.13-35.88 23.46-7.06 6.97-6.2 16.65 2.62 21.92 7.74 4.62 19.94 5.6 28 3.35-4.17.18-9.43-.63-14.7-2.47-3.03-1.06-6.92-2.65-9.9-4.93-7.42-5.64-5.29-13.44 2.22-17.36 9.72-5.08 27.43-10.43 32.72-20.65 5.11-9.85-1.93-17.86-20.04-17.86" class="fil1"/><path d="M136.85 26.76c7.82.52 11.8 4.2 12.17 8.78.65 8.12-8.95 14.68-15.42 17.51-10.93 4.77-24.7 5.17-30.31-5.13 16.22 11.29 55.7-10.18 33.56-21.16" class="fil1"/><path d="M146.16 39.01c11.28 2.33 14.37 7.65 12.39 13.24-3.17 8.94-16.36 15.12-25.28 17-9.34 1.97-19.28.99-27.61-5.24 6.49 2 12.04 2.66 17.83 2.08 6.09-.62 12.71-2.6 18.07-5.4 11.16-5.83 16.25-14.97 4.6-21.68" class="fil1"/><path d="M154.33 58.44c7.72-.24 11.54 4.12 9.32 9.39-2.25 5.33-9.63 9.39-14.55 11.79-11.28 5.49-25.75 10.56-30.55 23.45-2.02 5.43-1.93 11.93 1.63 19.79-5.05-7.78-6.39-14.73-5.07-20.84 3.53-16.4 21.81-21.97 34.75-28.79 8.48-4.48 16.47-10.63 4.47-14.79" class="fil1"/><path d="M205.95 197.26c0 .58-.29 1.04-.87 1.39-3.23 2.08-5.49 2.24-9.24 2.24-1.79 0-3.27-.7-4.45-2.11-1.19-1.42-1.98-2.9-2.38-4.46-3.4 4.56-8.04 6.83-13.92 6.83-5.64 0-9.56-1.34-11.75-4.02s-3.26-6.64-3.2-11.88l.17-23.16c0-.58-.05-1.24-.17-1.99-.11-.75-.58-1.12-1.38-1.12-.35 0-.68.02-1 .08-.67.12-1.69.13-2.35-.03-.58-.14-1.06-.44-1.06-1.09 0-.9.47-1.15 1.3-1.3 1.33-.24 2.81-.53 4.45-.73 1.64-.21 3.18-.42 4.62-.65.81-.12 1.8-.33 2.98-.65s2.15-.48 2.9-.48c.4 0 .75.09 1.04.26.28.18.43.47.43.87 0 5.24-.07 10.5-.22 15.77q-.21 7.905-.21 15.69c0 1.61.13 3.24.38 4.88q.39 2.46 1.86 4.11c.98 1.09 2.54 1.64 4.67 1.64 1.27 0 2.48-.35 3.63-1.04s2.19-1.57 3.11-2.63c.64-.74 2.68-3.63 2.68-4.63 0-4.55.02-9.12.04-13.7.03-4.58.05-9.11.05-13.61 0-.58-.06-1.18-.18-1.81-.11-.64-.57-.95-1.38-.95-.34 0-.7.02-1.08.08-.37.06-.78.06-1.12.06-.55 0-1.74-.06-2.16-.42-.2-.18-.31-.44-.31-.76 0-.46.15-.78.44-.95.29-.18.63-.3 1.03-.35.93-.12 1.38-.21 2.1-.3 1.2-.14 2.42-.34 3.61-.53 1.16-.2 2.32-.41 3.46-.6 1.4-.22 2.81-.5 4.22-.84.65-.15.95-.24 1.65-.24.41 0 .77.08 1.08.22.32.15.48.45.48.91 0 6.28-.06 12.59-.17 18.93-.12 6.33-.18 12.67-.18 19.01 0 .97.1 2.94 1.05 3.47.29.17.66.25 1.11.25.46 0 .95-.07 1.47-.22.52-.14.98-.3 1.39-.47.34-.18.66-.16.95.04s.43.53.43.99M148.62 155.86c0 .29-.12.64-.35 1.04q-.51.78-2.46 3.72c-1.29 1.96-2.87 4.32-4.71 7.08-1.84 2.77-3.73 5.67-5.66 8.69s-3.75 5.92-5.45 8.69c-1.69 2.76-3.08 5.11-4.14 7.04-.83 1.5-2.76 4.38-.06 5.07 1.98.52 8.18.14 10.26-.16 2.21-.31 4.07-.69 5.57-2.19 1.15-1.09 2.02-2.32 2.59-3.67.26-.6.5-1.2.73-1.81.15-.41.31-.83.45-1.25.23-.66.4-1.1.65-1.67.21-.46.41-.93 1.11-.93.87 0 1.3.37 1.3 1.12 0 .92-.05 1.87-.13 2.85-.29 3.28-.42 6.4-.76 9.66-.14 1.28-1.02 1.67-1.83 1.67-3.23 0-6.21-.04-9.47-.09-3.46-.06-6.91-.09-10.37-.09-2.36 0-4.75.08-7.17.22s-4.82.22-7.18.22c-.83 0-1.51-.8-1.55-1.59-.03-.53.26-1.03.62-1.64q.795-1.38 1.71-2.61a51 51 0 0 0 2.16-3.15q4.845-7.605 9.42-15.39c3.06-5.18 5.96-10.4 8.73-15.64 1.19-2.38.85-3.1-2.16-3.1-2.72 0-5.61-.1-8.3.35-3.37.48-4.82 1.77-5.78 4.5-.55 1.54-.81 3.04-1.52 4.56-.43.92-1.05 1.38-2.06 1.15-.83-.19-1.01-.87-1.01-1.84 0-2.15.06-4.28.16-6.39.08-1.51.09-3.31.27-4.76.12-.69.46-1.04 1.04-1.04.72 0 .99.26 1.6.35.48.08 1.11.08 1.59.08 1.67.01 3.33.02 4.98.05 1.99.02 3.96.04 5.92.04 2.36 0 4.72-.02 7.09-.04 2.36-.03 4.72-.08 7.08-.13.98 0 1.98-.05 2.99-.13 1-.09 2-.13 2.98-.13.75 0 1.12.43 1.12 1.29" class="fil2"/><path d="M84.24 178.34H63.06c-.4 1.03-.9 2.37-1.51 4.01q-.9 2.475-1.86 5.1c-.63 1.76-1.16 3.35-1.6 4.76-.26.85-.44 1.56-.54 2.11-.41 2.18.34 3.59 2.75 3.68.62.02 1.25.03 1.87.04.67 0 1.31.25 1.56.73.31.6.37 1.41-.28 1.82q-.48.3-.99.3c-1.85 0-3.72-.05-5.62-.17s-3.77-.17-5.62-.17c-.92 0-1.84.03-2.76.08-.92.06-1.88.09-2.85.09-.75 0-1.56-.36-1.56-1.21 0-.31.04-.6.14-.83.23-.56.7-.58 1.23-.59.92-.01 1.98-.05 2.69-.14.69-.07 1.25-.27 1.69-.82.43-.54.76-1.11.99-1.68 3.4-8.47 6.66-17 9.77-25.59 3.11-8.58 6.12-17.2 9.07-25.84.22-.64.31-.85.66-1.94.63-2 .36-2.42-1.81-3.3-.86-.35-1.84-.67-2.93-.84-2.9-.47-5.84-.22-8.41 1.05-9.82 4.82-4.4 15.18.91 11.41 1.39-.98 1.09-3.05 3.25-2.32 1.17.39 1.79 1.71 1.24 3.17q-.465 1.215-1.38 1.98c-1.38 1.17-3.34 1.52-5.15 1.2-3.99-.7-6.35-4.84-6.01-8.69.55-6.02 6.82-9.72 12.25-10.29 5.27-.55 10.96.93 16.21.24 3.77-.49 3.63-.69 5.06 3.39l9.41 26.91c7.18 20.52 15.46 42.7 29.4 59.86 3.84 4.71 9.62 9.6 16.17 12.93 8.42 4.27 17.34 5.85 26.09 1.45 3.34-1.67 6.32-4.67 8.04-7.98 4.03-7.81-.83-16.23-7.25-14.45-2.12.58-3.34 1.64-4.4 3.53-.86 1.53-1.52 2.87-4.13 1.99-2.15-.72-3.29-3.16-2.29-5.85.57-1.49 1.43-2.7 2.54-3.65 3-2.54 7.56-2.64 11.33-1.43 4.41 1.42 7.21 4.59 8.45 8.37 2.02 6.16.01 12.26-3.98 16.91-10.69 12.48-31.87 10.47-44.98 3.32-19.82-10.81-35.34-41.92-43.68-62.65m-1.25-3.29c-3.45-9.4-6.36-18.87-8.86-28.61-.98 2.83-2.05 5.88-3.2 9.16-1.15 3.29-2.29 6.6-3.42 9.94-1.12 3.35-2.2 6.51-3.24 9.51z" class="fil2"/><path d="M102.27 146.32c.08 0 .16.03.22.1l.6.66c-.46.53-1.02.95-1.67 1.25-.66.3-1.45.45-2.38.45-.81 0-1.55-.15-2.21-.43s-1.22-.67-1.69-1.17c-.46-.51-.82-1.12-1.08-1.82q-.39-1.065-.39-2.34c0-.85.14-1.63.42-2.33.27-.71.66-1.32 1.15-1.83.5-.5 1.1-.9 1.79-1.18.7-.28 1.46-.42 2.3-.42.83 0 1.54.13 2.14.39s1.13.61 1.6 1.05l-.5.69c-.03.05-.08.1-.12.13-.05.03-.12.05-.21.05-.06 0-.14-.03-.21-.08q-.12-.075-.27-.18c-.11-.07-.23-.15-.37-.23q-.21-.135-.51-.24c-.19-.07-.41-.14-.67-.19s-.55-.07-.89-.07c-.6 0-1.15.1-1.65.31s-.93.5-1.29.88c-.36.39-.64.85-.85 1.4-.2.55-.3 1.17-.3 1.85 0 .7.1 1.33.3 1.88.21.55.48 1.01.83 1.39q.525.57 1.23.87c.48.2.99.3 1.54.3.34 0 .64-.02.91-.06.26-.04.51-.1.74-.19.23-.08.44-.19.64-.32.19-.12.39-.28.59-.45.09-.08.17-.12.26-.12m5.71-2.37v4.71h-1.52v-11.27h3.18c.72 0 1.33.07 1.85.21q.78.225 1.29.63c.33.27.58.6.74.98.17.39.25.82.25 1.3 0 .4-.06.77-.19 1.12-.13.34-.31.65-.55.93-.23.27-.52.51-.87.7-.34.2-.73.34-1.16.44.18.11.35.27.5.48l3.28 4.48h-1.35c-.28 0-.48-.11-.61-.32l-2.92-4.03a.8.8 0 0 0-.29-.27q-.165-.09-.48-.09zm0-1.11h1.59c.45 0 .84-.05 1.18-.16s.62-.26.85-.46c.23-.19.4-.43.51-.7.12-.27.17-.57.17-.9 0-.67-.22-1.18-.66-1.51q-.66-.51-1.98-.51h-1.66zm16.59-5.45v1.24h-5.4v3.74h4.37v1.19h-4.37v3.85h5.4v1.24h-6.94v-11.26zm12.66 11.26h-1.17c-.14 0-.25-.03-.33-.1a.6.6 0 0 1-.19-.26l-1.05-2.72h-5.06l-1.05 2.72c-.03.09-.1.18-.19.25-.08.07-.19.11-.33.11h-1.17l4.5-11.26h1.54zm-7.37-4.17h4.2l-1.77-4.59q-.165-.42-.33-1.05c-.06.21-.12.41-.17.59-.06.18-.11.34-.16.47zm17.61 1.84c.09 0 .16.03.23.1l.6.66c-.46.53-1.02.95-1.68 1.25s-1.45.45-2.38.45c-.81 0-1.54-.15-2.2-.43s-1.23-.67-1.69-1.17a5.5 5.5 0 0 1-1.09-1.82c-.25-.71-.38-1.49-.38-2.34s.14-1.63.41-2.33c.28-.71.66-1.32 1.16-1.83.5-.5 1.09-.9 1.79-1.18.69-.28 1.46-.42 2.29-.42s1.55.13 2.15.39q.9.39 1.59 1.05l-.49.69c-.04.05-.08.1-.13.13s-.11.05-.2.05c-.07 0-.14-.03-.22-.08q-.105-.075-.27-.18c-.1-.07-.23-.15-.37-.23-.14-.09-.31-.17-.5-.24a4.4 4.4 0 0 0-.68-.19c-.25-.05-.55-.07-.88-.07-.61 0-1.16.1-1.66.31s-.93.5-1.29.88c-.36.39-.64.85-.84 1.4s-.31 1.17-.31 1.85c0 .7.11 1.33.31 1.88s.47 1.01.82 1.39.76.67 1.24.87c.47.2.99.3 1.54.3q.495 0 .9-.06c.27-.04.52-.1.74-.19.23-.08.44-.19.64-.32.2-.12.39-.28.59-.45.09-.08.18-.12.26-.12m5.85 2.33h-1.53v-11.26h1.53zm14.68-5.62c0 .84-.13 1.61-.4 2.32s-.64 1.31-1.13 1.82-1.07.9-1.76 1.18c-.68.28-1.44.43-2.26.43-.83 0-1.58-.15-2.27-.43-.68-.28-1.26-.67-1.75-1.18a5.4 5.4 0 0 1-1.13-1.82c-.26-.71-.4-1.48-.4-2.32 0-.85.14-1.62.4-2.33.27-.7.65-1.31 1.13-1.82.49-.51 1.07-.91 1.75-1.19.69-.29 1.44-.43 2.27-.43.82 0 1.58.14 2.26.43.69.28 1.27.68 1.76 1.19s.86 1.12 1.13 1.82c.27.71.4 1.48.4 2.33m-1.56 0c0-.7-.1-1.32-.29-1.87-.18-.55-.45-1.01-.8-1.4-.34-.38-.76-.67-1.25-.87-.5-.21-1.05-.31-1.65-.31s-1.15.1-1.64.31q-.75.3-1.26.87c-.35.39-.62.85-.81 1.4s-.28 1.17-.28 1.87c0 .69.09 1.31.28 1.86s.46 1.01.81 1.39q.51.57 1.26.87c.49.2 1.04.31 1.64.31s1.15-.11 1.65-.31c.49-.2.91-.49 1.25-.87.35-.38.62-.84.8-1.39.19-.55.29-1.17.29-1.86m5.64-5.64c.14 0 .24.01.3.05.07.03.14.1.22.21l6.52 8.48-.03-.4v-8.34h1.33v11.26h-.77q-.18 0-.3-.06a.8.8 0 0 1-.24-.22l-6.51-8.47c.01.13.02.26.02.39.01.12.01.24.01.34v8.02h-1.34v-11.26zm19.24 0v1.24h-5.41v3.74h4.38v1.19h-4.38v3.85h5.41v1.24h-6.94v-11.26zm9.17 1.76q-.075.12-.15.18c-.06.04-.12.06-.21.06s-.19-.04-.31-.13c-.11-.09-.26-.19-.44-.3-.19-.11-.4-.2-.66-.29a2.7 2.7 0 0 0-.92-.14c-.34 0-.64.05-.9.14a2.1 2.1 0 0 0-.66.37c-.17.16-.31.34-.4.56-.08.21-.13.44-.13.69 0 .31.08.57.23.78.16.2.36.38.62.53.25.14.54.27.86.38.32.1.65.22.99.33q.51.18.99.39c.32.14.61.33.86.55.26.22.46.49.62.81.15.31.23.71.23 1.17 0 .5-.09.96-.25 1.39-.17.43-.42.81-.74 1.13s-.72.57-1.18.75c-.47.18-1.01.28-1.6.28-.73 0-1.39-.14-1.99-.4a4.8 4.8 0 0 1-1.54-1.08l.44-.72q.06-.09.15-.15a.36.36 0 0 1 .2-.06c.11 0 .24.06.38.18s.32.25.53.39.47.27.77.39.67.17 1.1.17c.36 0 .69-.05.97-.15.28-.09.52-.24.72-.42s.35-.39.45-.64.16-.54.16-.84c0-.35-.08-.63-.23-.84-.16-.22-.36-.4-.61-.55-.25-.14-.54-.27-.86-.37s-.65-.21-.99-.32c-.34-.1-.67-.23-.99-.37a3.1 3.1 0 0 1-.86-.55c-.25-.22-.46-.5-.61-.84-.16-.34-.23-.76-.23-1.25 0-.4.07-.79.23-1.16.15-.37.38-.7.67-.99s.66-.52 1.09-.69.93-.26 1.49-.26c.62 0 1.2.1 1.72.3.51.2.97.49 1.36.87z" class="fil2"/></g><path d="M0 0h250v250H0z" style="fill:none"/></g></svg>
