<svg xmlns="http://www.w3.org/2000/svg" xml:space="preserve" width="220px" height="220px" style="shape-rendering:geometricPrecision;text-rendering:geometricPrecision;image-rendering:optimizeQuality;fill-rule:evenodd;clip-rule:evenodd"><defs><style>.fil1{fill:#f6c8c7}.fil2{fill:#754830;fill-rule:nonzero}</style></defs><g id="Capa_x0020_1"><g id="_2087612877536"><path d="M646.06 536.54c20.76 45.59 20.5 81.62 75.05 104.33 31.63 13.17 101.05 13.33 132.68 0 18.02-7.59 30.07-16.59 38.86-26.89 30.31-35.48 44.09-92.74 95.42-120.84-11.73 15.09-20.81 29.78-30.34 48.96-27.37 55.02-32.82 104.42-100.26 127.05-34.01 11.42-106.04 11.44-140.04 0-67.43-22.68-72.87-72.01-100.26-127.05-15.45-31.07-30.73-51.13-55.63-78.42-12.03-16.25-22.06-29.32-20.32-44.66 1.29-23.47 16.53-36.98 39.25-41.09 6.42-1.16 13.78.46 15.56.97-4.6 1.88-9.62 4.16-13.86 6.79-17.57 10.93-19.84 25.34-12.69 37.3 14.46 24.16 34.44 38.94 54.35 70.74 7.42 11.85 14.91 25.74 22.23 42.81" style="fill:#754830"/><path d="M768.28 42.22c107.29 146.89-149.69 149.23-133.09 234.32-40.23-135.37 185.87-97.26 133.09-234.32" class="fil1"/><path d="M722.74 75.05c82.44 15.83 108.66 49.49 90.7 88.15-33.61 72.31-160.28 85.64-217.55 142.22-42.8 42.24-37.59 100.9 15.9 132.83 46.9 28.02 120.87 33.99 169.73 20.32-25.31 1.09-57.17-3.8-89.09-14.94-18.37-6.41-41.94-16.11-60.05-29.88-44.97-34.18-32.08-81.49 13.45-105.26 58.97-30.82 166.3-63.22 198.39-125.17 30.98-59.71-11.73-108.27-121.48-108.27" class="fil1"/><path d="M851.83 184.48c47.42 3.13 71.54 25.41 73.77 53.17 3.95 49.24-54.22 89.03-93.45 106.18-66.25 28.92-149.72 31.32-183.73-31.07 98.28 68.39 337.63-61.73 203.41-128.28" class="fil1"/><path d="M908.27 258.73c68.38 14.14 87.12 46.39 75.1 80.28-19.21 54.17-99.16 91.65-153.21 103.05-56.62 11.94-116.88 6-167.42-31.76 39.38 12.08 72.99 16.1 108.12 12.55 36.89-3.74 77.06-15.74 109.51-32.69 67.68-35.38 98.56-90.76 27.9-131.43" class="fil1"/><path d="M957.82 376.49c46.79-1.41 69.94 25.02 56.46 56.95-13.63 32.28-58.33 56.91-88.16 71.45-68.37 33.31-156.15 64.05-185.2 142.15-12.26 32.92-11.69 72.36 9.85 120-30.61-47.2-38.73-89.29-30.74-126.35 21.41-99.42 132.25-133.19 210.66-174.54 51.45-27.14 99.86-64.45 27.13-89.66" class="fil1"/><path d="M1270.73 1218.08c0 3.49-1.74 6.29-5.24 8.38-19.62 12.61-33.29 13.62-56.06 13.62-10.83 0-19.82-4.27-26.98-12.83s-11.97-17.55-14.41-26.98c-20.61 27.59-48.73 41.39-84.36 41.39-34.23 0-57.98-8.13-71.26-24.37-13.27-16.24-19.73-40.25-19.38-72.04l1.05-140.42c0-3.5-.36-7.51-1.05-12.05-.7-4.54-3.5-6.81-8.39-6.81-2.09 0-4.1.17-6.02.52-4.12.75-10.27.78-14.29-.18-3.5-.83-6.41-2.65-6.41-6.63 0-5.45 2.87-6.97 7.86-7.86 8.09-1.45 17.03-3.23 26.98-4.45 9.96-1.23 19.3-2.54 28.04-3.93 4.89-.7 10.91-2.01 18.07-3.93s13.01-2.88 17.56-2.88c2.44 0 4.54.52 6.28 1.57 1.75 1.04 2.62 2.79 2.62 5.24 0 31.78-.43 63.66-1.31 95.62a3495 3495 0 0 0-1.31 95.1c0 9.78.79 19.64 2.36 29.6s5.33 18.25 11.26 24.89c5.94 6.63 15.38 9.95 28.3 9.95 7.68 0 15.02-2.09 22.01-6.29 6.98-4.19 13.27-9.51 18.86-15.98 3.86-4.46 16.24-21.96 16.24-28.03 0-27.59.09-55.27.26-83.04q.27-41.655.27-82.53c0-3.49-.36-7.16-1.05-11-.7-3.84-3.5-5.76-8.39-5.76-2.09 0-4.28.17-6.55.52s-4.73.38-6.82.38c-3.3 0-10.55-.38-13.07-2.59-1.23-1.09-1.85-2.62-1.85-4.6 0-2.79.87-4.72 2.62-5.76 1.75-1.05 3.84-1.78 6.29-2.1 5.61-.72 8.34-1.29 12.71-1.81 7.24-.87 14.65-2.06 21.85-3.26 7.09-1.18 14.07-2.47 20.98-3.57a352 352 0 0 0 25.58-5.11c3.99-.95 5.76-1.44 10.05-1.44 2.44 0 4.62.43 6.55 1.31 1.91.87 2.88 2.7 2.88 5.5 0 38.07-.35 76.32-1.05 114.74s-1.05 76.85-1.05 115.27c0 5.9.58 17.85 6.35 21.05 1.77.99 4.02 1.48 6.75 1.48 2.79 0 5.76-.43 8.91-1.31 3.14-.87 5.93-1.83 8.38-2.88 2.1-1.05 4.02-.96 5.76.26 1.75 1.23 2.62 3.23 2.62 6.03M923.2 967.1c0 1.75-.7 3.85-2.1 6.29-2.09 3.15-7.07 10.66-14.93 22.53-7.86 11.88-17.38 26.2-28.56 42.97a3207 3207 0 0 0-34.32 52.65 3742 3742 0 0 0-33.01 52.66c-10.3 16.77-18.68 31-25.15 42.7-5.02 9.11-16.67 26.56-.35 30.76 12.01 3.1 49.6.83 62.18-.97 13.45-1.92 24.72-4.2 33.8-13.28 6.98-6.64 12.22-14.06 15.72-22.27q2.295-5.415 4.41-10.98c.94-2.5 1.86-5.03 2.74-7.58 1.37-3.98 2.38-6.64 3.95-10.12 1.26-2.78 2.49-5.64 6.71-5.64q7.86 0 7.86 6.81c0 5.59-.27 11.36-.79 17.29-1.75 19.83-2.54 38.78-4.62 58.53-.82 7.78-6.14 10.11-11.04 10.11-19.57 0-37.66-.2-57.43-.52-20.95-.35-41.91-.53-62.87-.53-14.32 0-28.82.44-43.49 1.31-14.67.88-29.17 1.31-43.49 1.31-5.04 0-9.18-4.81-9.41-9.59-.17-3.23 1.57-6.26 3.74-9.99a168 168 0 0 1 10.39-15.79c4.54-6.11 8.9-12.48 13.1-19.12 19.55-30.74 38.59-61.82 57.11-93.26 18.51-31.44 36.15-63.05 52.91-94.84 7.23-14.44 5.18-18.78-13.09-18.78-16.49 0-34.03-.62-50.3 2.09-20.44 2.92-29.23 10.74-35.07 27.28-3.3 9.38-4.92 18.44-9.21 27.66-2.59 5.58-6.33 8.41-12.46 7-5.04-1.15-6.14-5.26-6.14-11.19 0-13.03.33-25.94.99-38.75.46-9.14.53-20.05 1.63-28.84.7-4.19 2.8-6.29 6.29-6.29 4.38 0 5.97 1.58 9.68 2.14 2.92.43 6.75.48 9.67.49 10.11.02 20.17.11 30.16.25 12.05.18 24.02.27 35.89.27 14.33 0 28.65-.09 42.97-.27q21.48-.255 42.96-.78c5.94 0 11.97-.27 18.08-.79s12.14-.79 18.08-.79c4.54 0 6.81 2.63 6.81 7.86" class="fil2"/><path d="M532.9 1103.33H404.54c-2.45 6.29-5.51 14.41-9.17 24.37-3.67 9.95-7.43 20.26-11.27 30.91s-7.07 20.26-9.69 28.82c-1.59 5.2-2.7 9.47-3.33 12.79-2.47 13.24 2.12 21.8 16.69 22.31 3.79.14 7.58.23 11.36.25 4.03.03 7.91 1.51 9.44 4.43 1.9 3.62 2.26 8.53-1.68 11.04-1.92 1.22-3.92 1.83-6.02 1.83-11.18 0-22.53-.34-34.06-1.04a562 562 0 0 0-34.06-1.05c-5.59 0-11.18.17-16.76.52-5.59.35-11.36.53-17.29.53-4.55 0-9.43-2.16-9.43-7.34 0-1.89.26-3.62.83-5.01 1.44-3.44 4.26-3.54 7.45-3.59 5.63-.1 12.02-.33 16.34-.83 4.17-.48 7.6-1.66 10.22-4.98s4.63-6.72 6.02-10.21a4875 4875 0 0 0 59.21-155.1c18.86-52.04 37.13-104.29 55.02-156.66 1.32-3.86 1.88-5.14 3.98-11.78 3.83-12.11 2.16-14.64-10.96-19.98-5.23-2.14-11.16-4.07-17.77-5.13-17.57-2.84-35.38-1.29-51 6.38-59.5 29.2-26.69 92.01 5.56 69.17 8.41-5.96 6.56-18.46 19.67-14.08 7.07 2.37 10.83 10.41 7.51 19.25-1.85 4.93-4.68 8.9-8.35 12.02-8.35 7.09-20.24 9.17-31.22 7.25-24.2-4.23-38.51-29.33-36.41-52.71 3.28-36.46 41.34-58.88 74.25-62.34 31.93-3.35 66.45 5.6 98.24 1.45 22.84-2.99 22.03-4.19 30.69 20.57l57.05 163.1c43.52 124.41 93.71 258.83 178.25 362.87 23.23 28.58 58.27 58.23 98.01 78.39 51.01 25.89 105.13 35.46 158.13 8.83 20.24-10.17 38.35-28.32 48.73-48.43 24.45-47.35-5.01-98.34-43.92-87.59-12.83 3.54-20.23 9.98-26.66 21.39-5.23 9.29-9.22 17.41-25.07 12.11-13.03-4.36-19.95-19.18-13.84-35.46 3.42-9.08 8.62-16.4 15.39-22.13 18.17-15.43 45.8-16.03 68.69-8.67 26.72 8.59 43.68 27.8 51.2 50.69 12.28 37.4.03 74.37-24.12 102.55-64.83 75.64-193.22 63.48-272.66 20.13-120.15-65.57-214.24-254.13-264.83-379.84m-7.57-19.91c-20.94-57.01-38.58-114.39-53.73-173.43-5.94 17.12-12.4 35.63-19.39 55.54-6.98 19.91-13.88 40-20.69 60.26a6656 6656 0 0 1-19.65 57.63z" class="fil2"/><path d="M642.19 909.24c.51 0 .97.2 1.38.61l3.62 3.99c-2.79 3.24-6.17 5.77-10.16 7.58-3.98 1.81-8.79 2.72-14.41 2.72-4.92 0-9.38-.86-13.38-2.56s-7.41-4.07-10.23-7.14c-2.83-3.06-5.02-6.74-6.57-11.03-1.56-4.28-2.33-9-2.33-14.16 0-5.14.83-9.85 2.5-14.14 1.67-4.28 4-7.96 7.02-11.06 3.01-3.08 6.63-5.46 10.84-7.16q6.3-2.55 13.92-2.55c5.01 0 9.34.77 12.98 2.35 3.63 1.57 6.85 3.69 9.68 6.39l-3 4.17c-.22.32-.48.58-.76.78-.29.19-.7.31-1.24.31-.41 0-.84-.16-1.3-.46-.46-.31-1.02-.67-1.65-1.12-.64-.44-1.38-.91-2.24-1.43-.86-.5-1.87-.98-3.05-1.42-1.17-.45-2.54-.83-4.09-1.13-1.56-.3-3.35-.44-5.38-.44-3.65 0-6.99.62-10.02 1.87s-5.65 3.04-7.84 5.36-3.89 5.15-5.11 8.48-1.84 7.06-1.84 11.19c0 4.25.62 8.05 1.84 11.38s2.89 6.14 5 8.44 4.6 4.06 7.49 5.27 6 1.81 9.33 1.81c2.04 0 3.86-.13 5.48-.36 1.62-.24 3.13-.61 4.51-1.12s2.67-1.15 3.85-1.93c1.19-.78 2.39-1.7 3.59-2.78.54-.48 1.06-.71 1.57-.71m34.63-14.34v28.52h-9.19V855.1h19.29c4.32 0 8.04.44 11.19 1.32 3.14.87 5.74 2.12 7.79 3.77 2.05 1.66 3.55 3.65 4.54 5.99.98 2.35 1.47 4.95 1.47 7.84 0 2.43-.38 4.68-1.14 6.77-.76 2.1-1.85 3.99-3.3 5.66-1.44 1.66-3.21 3.09-5.28 4.26-2.08 1.18-4.45 2.07-7.08 2.67 1.14.67 2.16 1.63 3.04 2.9l19.91 27.14h-8.19q-2.52 0-3.72-1.95l-17.71-24.42c-.54-.77-1.13-1.3-1.76-1.64-.63-.33-1.59-.51-2.85-.51zm0-6.76h9.67c2.7 0 5.08-.31 7.12-.96 2.05-.66 3.77-1.58 5.15-2.77s2.41-2.6 3.11-4.25 1.05-3.48 1.05-5.46c0-4.06-1.34-7.13-4.02-9.17-2.68-2.07-6.68-3.1-11.98-3.1h-10.1zM777.4 855.1v7.52h-32.76v22.67h26.52v7.23h-26.52v23.33h32.76v7.53h-42.04V855.1zm76.77 68.28h-7.14c-.82 0-1.49-.21-2-.62a3.8 3.8 0 0 1-1.14-1.58l-6.38-16.47h-30.62l-6.38 16.47q-.33.87-1.14 1.53c-.54.44-1.21.67-2 .67h-7.14l27.28-68.28h9.38zm-44.71-25.29h25.48l-10.72-27.79c-.69-1.71-1.38-3.85-2.04-6.42-.35 1.3-.69 2.49-1.02 3.58-.33 1.1-.67 2.07-.98 2.89zm106.77 11.15c.51 0 .97.2 1.38.61l3.62 3.99c-2.79 3.24-6.17 5.77-10.16 7.58-3.98 1.81-8.79 2.72-14.41 2.72-4.92 0-9.38-.86-13.38-2.56s-7.41-4.07-10.23-7.14c-2.83-3.06-5.02-6.74-6.58-11.03-1.55-4.28-2.33-9-2.33-14.16 0-5.14.84-9.85 2.51-14.14 1.67-4.28 4-7.96 7.01-11.06 3.02-3.08 6.64-5.46 10.84-7.16 4.21-1.7 8.84-2.55 13.92-2.55 5.02 0 9.35.77 12.98 2.35 3.64 1.57 6.86 3.69 9.69 6.39l-3 4.17c-.22.32-.48.58-.77.78-.28.19-.69.31-1.23.31-.41 0-.84-.16-1.3-.46-.46-.31-1.02-.67-1.65-1.12-.64-.44-1.38-.91-2.24-1.43-.86-.5-1.87-.98-3.05-1.42-1.17-.45-2.54-.83-4.09-1.13-1.56-.3-3.35-.44-5.38-.44-3.65 0-6.99.62-10.02 1.87s-5.65 3.04-7.84 5.36-3.89 5.15-5.11 8.48-1.84 7.06-1.84 11.19c0 4.25.62 8.05 1.84 11.38s2.89 6.14 5 8.44 4.6 4.06 7.49 5.27 6 1.81 9.33 1.81c2.03 0 3.86-.13 5.48-.36 1.62-.24 3.12-.61 4.5-1.12a18.8 18.8 0 0 0 3.86-1.93c1.19-.78 2.38-1.7 3.59-2.78.54-.48 1.06-.71 1.57-.71m35.44 14.14h-9.24V855.1h9.24zm89.01-34.09c0 5.11-.81 9.8-2.43 14.09-1.62 4.27-3.9 7.95-6.86 11.03-2.95 3.08-6.49 5.47-10.63 7.17s-8.73 2.56-13.75 2.56c-5.01 0-9.58-.86-13.71-2.56-4.12-1.7-7.66-4.09-10.61-7.17-2.96-3.08-5.24-6.76-6.86-11.03-1.62-4.29-2.43-8.98-2.43-14.09 0-5.12.81-9.81 2.43-14.1 1.62-4.27 3.9-7.95 6.86-11.06 2.95-3.09 6.49-5.51 10.61-7.22 4.13-1.72 8.7-2.57 13.71-2.57 5.02 0 9.61.85 13.75 2.57 4.14 1.71 7.68 4.13 10.63 7.22 2.96 3.11 5.24 6.79 6.86 11.06 1.62 4.29 2.43 8.98 2.43 14.1m-9.48 0c0-4.19-.57-7.97-1.71-11.3-1.14-3.35-2.76-6.16-4.86-8.48-2.09-2.3-4.63-4.08-7.61-5.32-2.99-1.23-6.32-1.85-10.01-1.85-3.65 0-6.96.62-9.95 1.85-2.98 1.24-5.52 3.02-7.63 5.32-2.11 2.32-3.75 5.13-4.89 8.48-1.14 3.33-1.71 7.11-1.71 11.3q0 6.285 1.71 11.28c1.14 3.32 2.78 6.12 4.89 8.44 2.11 2.3 4.65 4.07 7.63 5.29 2.99 1.22 6.3 1.84 9.95 1.84 3.69 0 7.02-.62 10.01-1.84 2.98-1.22 5.52-2.99 7.61-5.29 2.1-2.32 3.72-5.12 4.86-8.44q1.71-4.995 1.71-11.28m34.21-34.19c.82 0 1.44.09 1.84.3s.84.63 1.35 1.27l39.52 51.42c-.1-.82-.16-1.63-.19-2.41-.04-.78-.05-1.52-.05-2.25V855.1h8.09v68.28h-4.66c-.73 0-1.34-.13-1.83-.38-.49-.26-.98-.69-1.46-1.29l-39.47-51.38c.06.8.11 1.58.14 2.34s.05 1.46.05 2.09v48.62h-8.09V855.1zm116.62 0v7.52h-32.76v22.67h26.52v7.23h-26.52v23.33h32.76v7.53h-42.04V855.1zm55.58 10.71c-.28.48-.58.83-.9 1.06-.32.24-.73.37-1.24.37-.54 0-1.16-.27-1.87-.81-.72-.54-1.62-1.14-2.72-1.79-1.09-.65-2.41-1.24-3.95-1.78s-3.41-.81-5.6-.81c-2.06 0-3.89.27-5.48.82-1.58.56-2.9 1.32-3.96 2.27a9.3 9.3 0 0 0-2.41 3.35c-.55 1.29-.81 2.69-.81 4.18 0 1.9.47 3.48 1.41 4.73.93 1.25 2.17 2.33 3.71 3.22s3.29 1.65 5.24 2.3 3.95 1.33 6 2.03 4.05 1.48 6 2.35 3.7 1.99 5.24 3.32 2.77 2.97 3.71 4.9c.94 1.94 1.39 4.32 1.39 7.15 0 2.98-.5 5.77-1.52 8.39-1.01 2.62-2.49 4.91-4.44 6.84-1.95 1.94-4.35 3.46-7.19 4.57s-6.08 1.67-9.7 1.67c-4.41 0-8.43-.81-12.06-2.42-3.64-1.6-6.74-3.77-9.32-6.52l2.67-4.38c.25-.36.57-.65.94-.89.36-.23.76-.36 1.2-.36.67 0 1.43.36 2.29 1.08.86.71 1.93 1.49 3.22 2.35 1.28.85 2.84 1.65 4.67 2.36 1.82.72 4.04 1.06 6.68 1.06q3.285 0 5.85-.9c1.72-.6 3.18-1.46 4.37-2.55 1.19-1.1 2.09-2.4 2.73-3.93.63-1.52.95-3.22.95-5.09 0-2.06-.46-3.76-1.4-5.08-.93-1.32-2.17-2.41-3.7-3.3-1.52-.89-3.25-1.65-5.2-2.27s-3.95-1.25-6-1.9-4.05-1.4-6-2.26c-1.95-.85-3.7-1.96-5.22-3.33s-2.75-3.08-3.68-5.13c-.94-2.04-1.41-4.57-1.41-7.58 0-2.42.47-4.75 1.41-7 .93-2.26 2.28-4.25 4.06-6s3.98-3.15 6.6-4.19c2.62-1.05 5.62-1.57 9.02-1.57 3.81 0 7.28.6 10.42 1.82 3.15 1.21 5.89 2.97 8.24 5.27z" class="fil2"/></g><path d="M0 0h1560v1560H0z" style="fill:none"/></g></svg>
